<svg width="829" height="653" viewBox="0 0 829 653" fill="none" xmlns="http://www.w3.org/2000/svg">
<path d="M589.243 169.263H561.584C557.22 169.263 553.682 172.8 553.682 177.163C553.682 181.527 557.22 185.064 561.584 185.064H589.243C593.607 185.064 597.145 181.527 597.145 177.163C597.145 172.8 593.607 169.263 589.243 169.263Z" fill="#E7C75D"/>
<path d="M478.49 141.612H360.19C338.303 141.612 320.56 159.35 320.56 181.232V196.547C320.56 218.428 338.303 216.167 360.19 216.167H478.49C500.377 216.167 518.121 218.428 518.121 196.547V181.232C518.121 159.35 500.377 141.612 478.49 141.612Z" fill="#4A524F"/>
<path d="M585.292 177.163H253.389C227.202 177.163 205.974 198.386 205.974 224.566V457.626C205.974 483.806 227.202 505.028 253.389 505.028H585.292C611.478 505.028 632.706 483.806 632.706 457.626V224.566C632.706 198.386 611.478 177.163 585.292 177.163Z" fill="#D85D5C"/>
<path d="M269.556 177H244.444C238.676 177 206 193.231 206 219.422V451.578C205 477.5 218.5 500.5 250.444 505H269.556C275.324 505 300 483.769 300 457.578V224.422C300 198.231 275.324 177 269.556 177Z" fill="#D85D5C"/>
<path d="M414.915 456.955C478.482 456.955 530.014 405.437 530.014 341.886C530.014 278.335 478.482 226.817 414.915 226.817C351.347 226.817 299.816 278.335 299.816 341.886C299.816 405.437 351.347 456.955 414.915 456.955Z" fill="#E7C75D"/>
<path d="M414.915 426.657C461.745 426.657 499.708 388.704 499.708 341.886C499.708 295.068 461.745 257.115 414.915 257.115C368.085 257.115 330.122 295.068 330.122 341.886C330.122 388.704 368.085 426.657 414.915 426.657Z" fill="white"/>
<path d="M414.915 389.051C440.97 389.051 462.092 367.935 462.092 341.886C462.092 315.837 440.97 294.721 414.915 294.721C388.859 294.721 367.737 315.837 367.737 341.886C367.737 367.935 388.859 389.051 414.915 389.051Z" fill="#4A524F"/>
<path d="M415.191 361.123C425.819 361.123 434.434 352.51 434.434 341.886C434.434 331.261 425.819 322.649 415.191 322.649C404.564 322.649 395.949 331.261 395.949 341.886C395.949 352.51 404.564 361.123 415.191 361.123Z" fill="white"/>
<path d="M601.097 212.715H533.926V248.267H601.097V212.715Z" fill="white"/>
<path d="M538 213H534V248H538V213Z" fill="white"/>
<path d="M588.69 165.352H561.505C560.283 165.352 559.293 166.343 559.293 167.565V168.118C559.293 169.339 560.283 170.33 561.505 170.33H588.69C589.912 170.33 590.902 169.339 590.902 168.118V167.565C590.902 166.343 589.912 165.352 588.69 165.352Z" fill="#4A524F"/>
<path d="M366.678 11.6829C368.409 9.16608 367.771 5.72305 365.253 3.99265C362.736 2.26225 359.292 2.89975 357.561 5.41655L75.0541 416.205C73.3233 418.721 73.961 422.164 76.4785 423.895C78.996 425.625 82.4399 424.988 84.1707 422.471L366.678 11.6829Z" fill="#4A524F"/>
<path d="M295.521 27.4765C297.252 24.9597 296.614 21.5167 294.097 19.7863C291.579 18.0559 288.136 18.6934 286.405 21.2102L3.8978 431.998C2.16694 434.515 2.80463 437.958 5.3221 439.689C7.83957 441.419 11.2835 440.781 13.0143 438.265L295.521 27.4765Z" fill="#4A524F"/>
<path d="M462.357 641.351C460.626 643.868 461.264 647.311 463.781 649.041C466.298 650.771 469.742 650.134 471.473 647.617L753.98 236.829C755.711 234.312 755.073 230.869 752.556 229.139C750.038 227.408 746.594 228.046 744.864 230.563L462.357 641.351Z" fill="#4A524F"/>
<path d="M533.484 625.543C531.753 628.06 532.391 631.503 534.908 633.233C537.426 634.964 540.87 634.326 542.6 631.809L825.107 221.021C826.838 218.504 826.2 215.061 823.683 213.331C821.166 211.601 817.722 212.238 815.991 214.755L533.484 625.543Z" fill="#4A524F"/>
</svg>
