<svg width="145" height="387" viewBox="0 0 145 387" fill="none" xmlns="http://www.w3.org/2000/svg">
<path d="M82.4687 84.8074C83.9036 86.9994 89.7942 90.0228 91.9843 88.5867C94.1744 87.1506 91.9088 81.784 90.4739 79.592C89.039 77.4 86.0937 76.7953 83.9036 78.2314C81.638 79.6676 81.0338 82.6154 82.4687 84.8074Z" fill="#F8C40A"/>
<path d="M58.151 56.0848C55.8099 54.8754 49.2396 55.1021 48.0312 57.4453C46.8229 59.7885 51.4297 63.341 53.7708 64.5504C56.112 65.7598 58.9817 64.8527 60.1901 62.5096C61.3984 60.1664 60.4922 57.2941 58.151 56.0848Z" fill="#F8C40A"/>
<path d="M84.9609 67.1203C84.9609 60.7711 79.8255 55.6313 73.4818 55.6313C67.138 55.6313 62.0026 60.7711 62.0026 67.1203C62.0026 73.4695 67.138 78.6094 73.4818 78.6094C79.8255 78.6094 84.9609 73.4695 84.9609 67.1203ZM65.401 67.1203C65.401 62.6608 69.026 59.0326 73.4818 59.0326C77.9375 59.0326 81.5625 62.6608 81.5625 67.1203C81.5625 71.5799 77.9375 75.208 73.4818 75.208C69.026 75.208 65.401 71.5799 65.401 67.1203Z" fill="#F8C40A"/>
<path d="M143.036 218.368C140.544 212.926 138.354 205.518 137.826 195.994C136.844 177.4 106.484 157.446 95.3828 150.794C93.3437 142.706 90.8516 134.316 87.7552 125.624C85.6406 119.577 83.7526 114.739 82.0911 110.809C84.0547 113.228 86.0182 115.344 87.7552 116.856C98.2526 125.851 113.508 125.321 121.815 115.571C130.198 105.82 128.461 90.6275 117.964 81.6328C117.057 80.8014 115.924 79.9699 114.716 79.1385C119.474 77.3244 123.779 75.208 126.648 73.0916C137.977 65.1551 141.148 50.1891 133.747 39.6826C126.346 29.1762 111.242 27.1353 99.9141 35.0719C97.9505 36.4324 95.8359 38.3221 93.5703 40.5896C94.7786 36.1301 95.4583 32.0484 95.5338 28.7982C95.987 14.966 85.9427 3.47694 73.1042 3.09901C60.5677 2.79667 49.8437 13.681 49.3906 27.5133C49.3151 31.217 49.8437 36.1301 51.0521 41.2699C49.3906 39.2291 47.7292 37.415 46.2187 36.0545C35.9479 26.833 20.6927 27.0598 12.0833 36.6592C3.54947 46.183 4.90885 61.4514 15.2552 70.6728C19.0312 73.9986 25.2995 77.8535 32.1719 80.8014C31.4167 81.406 30.737 81.9351 30.0573 82.5398C19.7109 91.7613 18.276 106.954 26.8099 116.554C35.3437 126.153 50.5989 126.455 60.9453 117.234C64.1172 114.362 67.8932 109.675 71.2161 104.384C70.8385 108.088 70.8385 112.925 70.9896 117.385C71.0651 119.123 71.5937 120.786 72.4245 122.449C73.5573 121.315 75.1432 120.635 76.8802 120.635C80.4297 120.635 83.375 123.507 83.375 127.136C83.375 129.781 81.7891 132.049 79.5234 133.031C80.0521 133.863 80.5807 134.77 81.0338 135.601C81.2604 135.601 81.4114 135.601 81.638 135.601C85.1875 135.601 88.1328 138.473 88.1328 142.102C88.1328 144.596 86.6979 146.788 84.5833 147.846C84.7344 148.526 84.8854 149.207 85.0364 149.887C74.0104 158.201 30.5859 193.198 39.7995 222.071C43.1979 232.805 46.2187 243.387 48.6354 252.759C49.8437 257.37 56.5651 256.614 56.7917 251.852C57.4713 237.415 59.0573 222.979 62.9088 218.519C69.7057 210.658 81.487 169.766 85.8672 154.12C86.1693 155.631 86.3958 157.219 86.6979 158.882C89.4922 159.562 91.5312 162.132 91.5312 165.155C91.5312 167.574 90.1719 169.766 88.1328 170.824C88.2838 172.034 88.3594 173.319 88.4349 174.604C91.8333 174.755 94.5521 177.627 94.5521 181.028C94.5521 184.279 92.1354 187 89.0391 187.453C89.0391 188.889 89.0391 190.401 89.0391 191.837C92.1354 192.291 94.5521 195.012 94.5521 198.186C94.5521 201.588 91.9088 204.384 88.5104 204.611C88.3594 206.123 88.2838 207.559 88.1328 209.071C91.0026 209.751 93.1172 212.321 93.1172 215.344C93.1172 218.897 90.2474 221.845 86.6224 221.845C86.4713 221.845 86.3203 221.845 86.2448 221.845C85.9427 223.356 85.6406 224.868 85.263 226.455C87.9062 227.287 89.7943 229.706 89.7943 232.654C89.7943 236.206 86.9245 239.154 83.2995 239.154C82.7708 239.154 82.2422 239.078 81.7891 238.927C81.2604 240.363 80.8073 241.875 80.2031 243.311C82.8463 244.596 84.7344 247.393 84.7344 250.567C84.7344 255.027 81.1094 258.655 76.6536 258.655C75.4453 258.655 74.3125 258.353 73.2552 257.899C72.5 259.184 71.7448 260.469 70.9141 261.679C72.5 263.19 73.4062 265.382 73.4062 267.725C73.4062 272.412 69.6302 276.191 64.9479 276.191C63.2109 276.191 61.625 275.662 60.3411 274.83C59.6615 275.511 59.0573 276.191 58.3776 276.871C59.9635 278.534 61.0208 280.802 61.0208 283.296C61.0208 288.36 56.8672 292.518 51.8073 292.518C49.6927 292.518 47.7292 291.762 46.1432 290.552C45.5391 291.384 44.9349 292.215 44.2552 293.122C46.8229 294.785 48.5599 297.733 48.5599 301.059C48.5599 306.274 44.3307 310.507 39.1198 310.507C37.4583 310.507 35.8724 310.054 34.4375 309.298C33.9088 310.356 33.3802 311.414 32.9271 312.472C37.9114 313.606 41.5364 318.066 41.5364 323.357C41.5364 329.555 36.5521 334.543 30.3594 334.543C28.7734 334.543 27.3385 334.241 25.9792 333.636C25.7526 334.921 25.6016 336.131 25.4505 337.416C28.849 337.567 31.5677 340.439 31.5677 343.84C31.5677 347.242 28.9245 350.038 25.6016 350.265H65.0234C65.0234 350.265 56.4896 315.798 86.6979 265.155C99.6875 243.387 105.352 218.065 102.708 192.895C101.878 185.261 100.745 176.796 98.9323 167.801C103.464 179.139 108.75 192.593 111.016 199.245C113.583 207.03 127.404 216.554 137.826 222.827C140.997 224.566 144.396 221.467 143.036 218.368ZM12.5365 57.5965C11.4792 57.5965 10.5729 56.6894 10.5729 55.6312C10.5729 54.573 11.4792 53.666 12.5365 53.666C13.5937 53.666 14.5 54.573 14.5 55.6312C14.5 56.6894 13.5937 57.5965 12.5365 57.5965ZM24.9974 49.3576C23.5625 49.3576 22.3542 48.1482 22.3542 46.7121C22.3542 45.276 23.5625 44.0666 24.9974 44.0666C26.4323 44.0666 27.6406 45.276 27.6406 46.7121C27.6406 48.1482 26.4323 49.3576 24.9974 49.3576ZM29.5286 99.6978C28.4713 99.6978 27.5651 98.7908 27.5651 97.7326C27.5651 96.6744 28.4713 95.7674 29.5286 95.7674C30.5859 95.7674 31.4922 96.6744 31.4922 97.7326C31.4922 98.7908 30.6614 99.6978 29.5286 99.6978ZM98.7812 107.786C96.9687 107.786 95.4583 106.274 95.4583 104.46C95.4583 102.646 96.9687 101.134 98.7812 101.134C100.594 101.134 102.104 102.646 102.104 104.46C102.029 106.274 100.594 107.786 98.7812 107.786ZM110.789 109.751C109.732 109.751 108.826 108.844 108.826 107.786C108.826 106.727 109.732 105.82 110.789 105.82C111.846 105.82 112.753 106.727 112.753 107.786C112.753 108.844 111.846 109.751 110.789 109.751ZM107.466 92.5928C107.466 91.3078 108.523 90.3252 109.732 90.3252C111.016 90.3252 111.997 91.3834 111.997 92.5928C111.997 93.8777 110.94 94.8603 109.732 94.8603C108.523 94.8603 107.466 93.8777 107.466 92.5928ZM116.68 37.8685C117.737 37.8685 118.643 38.7756 118.643 39.8338C118.643 40.892 117.737 41.799 116.68 41.799C115.622 41.799 114.716 40.892 114.716 39.8338C114.716 38.7756 115.622 37.8685 116.68 37.8685ZM116.68 60.9223C118.115 60.9223 119.323 62.1316 119.323 63.5678C119.323 65.0039 118.115 66.2133 116.68 66.2133C115.245 66.2133 114.036 65.0039 114.036 63.5678C114.036 62.1316 115.245 60.9223 116.68 60.9223ZM114.036 70.6728C114.036 72.4869 112.526 73.9986 110.714 73.9986C108.901 73.9986 107.391 72.4869 107.391 70.6728C107.391 68.8588 108.901 67.3471 110.714 67.3471C112.602 67.3471 114.036 68.8588 114.036 70.6728ZM93.8724 44.5957C95.6849 44.5957 97.1953 46.1074 97.1953 47.9215C97.1953 49.7355 95.6849 51.2473 93.8724 51.2473C92.0599 51.2473 90.5495 49.7355 90.5495 47.9215C90.625 46.1074 92.0599 44.5957 93.8724 44.5957ZM86.6224 26.3039C89.3411 26.3039 91.5312 28.4959 91.5312 31.217C91.5312 33.9381 89.3411 36.1301 86.6224 36.1301C83.9036 36.1301 81.7135 33.9381 81.7135 31.217C81.7135 28.4959 83.9036 26.3039 86.6224 26.3039ZM76.9557 19.2744C78.3906 19.2744 79.599 20.4838 79.599 21.9199C79.599 23.356 78.3906 24.5654 76.9557 24.5654C75.5208 24.5654 74.3125 23.356 74.3125 21.9199C74.3125 20.4082 75.5208 19.2744 76.9557 19.2744ZM66.6094 9.22148C67.6667 9.22148 68.5729 10.1285 68.5729 11.1867C68.5729 12.2449 67.6667 13.1519 66.6094 13.1519C65.5521 13.1519 64.6458 12.2449 64.6458 11.1867C64.6458 10.1285 65.5521 9.22148 66.6094 9.22148ZM62.6823 36.1301C64.4948 36.1301 66.0052 37.6418 66.0052 39.4559C66.0052 41.2699 64.4948 42.7816 62.6823 42.7816C60.8698 42.7816 59.3594 41.2699 59.3594 39.4559C59.3594 37.5662 60.8698 36.1301 62.6823 36.1301ZM37.0052 39.8338C39.3463 39.8338 41.3099 41.7234 41.3099 44.1422C41.3099 46.4853 39.4219 48.4506 37.0052 48.4506C34.5885 48.4506 32.7005 46.5609 32.7005 44.1422C32.776 41.799 34.6641 39.8338 37.0052 39.8338ZM36.5521 71.6555C36.5521 70.1437 37.8359 68.8588 39.3463 68.8588C40.8568 68.8588 42.1406 70.1437 42.1406 71.6555C42.1406 73.1672 40.8568 74.4521 39.3463 74.4521C37.8359 74.4521 36.5521 73.2428 36.5521 71.6555ZM48.5599 106.274C47.125 106.274 45.9167 105.064 45.9167 103.628C45.9167 102.192 47.125 100.983 48.5599 100.983C49.9948 100.983 51.2031 102.192 51.2031 103.628C51.2031 105.064 49.9948 106.274 48.5599 106.274ZM47.125 97.7326C44.6328 97.7326 42.5937 95.6918 42.5937 93.1975C42.5937 90.7031 44.6328 88.6623 47.125 88.6623C49.6172 88.6623 51.6562 90.7031 51.6562 93.1975C51.6562 95.7674 49.6172 97.7326 47.125 97.7326ZM67.9687 99.2443L65.4766 80.8014C65.3255 80.6502 65.099 80.499 64.9479 80.4234C64.5703 80.1211 64.1927 79.8943 63.8906 79.592L61.474 84.4295L53.0911 101.21L55.7344 86.0924L57.7734 74.4521C57.3958 74.0742 56.9427 73.6963 56.5651 73.3939L41.5364 84.2027L39.875 85.4121L40.7057 83.976L50.4479 67.4226C50.0703 67.0447 49.7682 66.6668 49.3906 66.2889L36.25 67.3471L44.7083 60.8467C44.2552 60.242 43.8021 59.7129 43.3489 59.2594L33.9088 52.759L43.2734 54.6486C44.4818 54.2707 46.0677 53.7416 47.9557 53.2125L43.8021 45.4271L53.5443 50.1135L56.3385 51.474C56.5651 51.3984 56.8672 51.3984 57.0937 51.3228L54.7526 40.8164L64.4193 50.6426C64.6458 50.6426 64.9479 50.6426 65.1745 50.6426L72.5 24.4898L76.5781 51.8519C76.8802 51.9275 77.1823 52.0031 77.5599 52.0787L85.9427 40.7408V56.4627L107.768 48.6773L90.7005 62.9631H110.562L93.7213 70.4461C93.8724 70.8996 93.9479 71.3531 94.0989 71.731L111.544 78.2314L95.7604 77.4L96.5911 83.6736L96.6667 84.0516L115.547 88.1332L96.5156 89.6449C96.5156 89.8717 96.5156 90.0984 96.5156 90.3252L107.995 100.454L85.263 91.5346L88.5859 109.297L74.8411 86.6971C73.8594 86.168 72.9531 85.6389 71.9713 85.0342L70.3099 90.8543L67.9687 99.2443ZM50.3724 230.764C47.8047 230.764 45.6901 228.647 45.6901 226.078C45.6901 223.508 47.8047 221.391 50.3724 221.391C52.9401 221.391 55.0547 223.508 55.0547 226.078C55.0547 228.647 52.9401 230.764 50.3724 230.764ZM53.6198 214.211C49.013 214.211 45.237 210.431 45.237 205.82C45.237 201.21 49.013 197.43 53.6198 197.43C58.2266 197.43 62.0026 201.21 62.0026 205.82C62.0026 210.431 58.2266 214.211 53.6198 214.211ZM62.0781 193.727C58.5286 193.727 55.6588 190.854 55.6588 187.302C55.6588 183.749 58.5286 180.877 62.0781 180.877C65.6276 180.877 68.4974 183.749 68.4974 187.302C68.4974 190.854 65.6276 193.727 62.0781 193.727ZM70.2344 177.854C67.8932 177.854 66.0807 175.964 66.0807 173.696C66.0807 171.353 67.9687 169.539 70.2344 169.539C72.5 169.539 74.388 171.429 74.388 173.696C74.388 176.04 72.5755 177.854 70.2344 177.854ZM102.029 166.289C100.518 166.289 99.1588 165.458 98.4036 164.248C98.2526 163.417 98.026 162.51 97.875 161.603C98.1016 159.562 99.9141 157.899 102.029 157.899C104.37 157.899 106.182 159.789 106.182 162.056C106.258 164.399 104.37 166.289 102.029 166.289ZM106.258 175.057C106.258 171.958 108.75 169.388 111.922 169.388C115.094 169.388 117.586 171.882 117.586 175.057C117.586 178.156 115.094 180.726 111.922 180.726C108.75 180.726 106.258 178.156 106.258 175.057ZM114.414 190.174C114.414 185.79 117.964 182.238 122.344 182.238C126.724 182.238 130.273 185.79 130.273 190.174C130.273 194.558 126.724 198.111 122.344 198.111C117.964 198.111 114.414 194.558 114.414 190.174ZM130.727 212.926C128.008 212.926 125.742 210.734 125.742 207.937C125.742 205.216 127.932 202.948 130.727 202.948C133.445 202.948 135.711 205.14 135.711 207.937C135.635 210.658 133.445 212.926 130.727 212.926Z" fill="#F8C40A"/>
</svg>
