<svg width="217" height="217" viewBox="0 0 217 217" fill="none" xmlns="http://www.w3.org/2000/svg">
<path d="M108.5 67.8125C91.0807 67.8125 76.2043 78.832 70.3979 94.217C70.7369 94.1322 71.076 94.0475 71.415 94.0475C73.407 94.0475 75.0176 95.658 75.0176 97.65C75.0176 99.642 73.407 101.253 71.415 101.253C70.3131 101.253 69.3383 100.744 68.6602 99.9811C68.0668 102.694 67.7701 105.533 67.7701 108.415C67.7701 120.494 73.068 131.387 81.5021 138.846C82.0955 137.617 83.3246 136.727 84.808 136.727C86.8 136.727 88.4105 138.338 88.4105 140.329C88.4105 141.431 87.9443 142.364 87.1814 143.042C93.3693 146.856 100.659 149.06 108.458 149.06C130.878 149.06 149.145 130.793 149.145 108.373C149.187 86.0795 130.921 67.8125 108.5 67.8125ZM105.237 100.447C105.237 98.1586 105.83 96.2938 108.119 96.2938C110.407 96.2938 111.001 98.1586 111.001 100.447L112.272 115.959C112.272 118.248 110.407 120.113 108.119 120.113C105.83 120.113 103.965 118.248 103.965 115.959L105.237 100.447ZM88.6225 105.152C83.2398 105.152 78.8744 100.786 78.8744 95.4037C78.8744 90.0211 83.2398 85.6557 88.6225 85.6557C94.0051 85.6557 98.3705 90.0211 98.3705 95.4037C98.3705 100.786 94.0051 105.152 88.6225 105.152ZM108.119 145.034C102.736 145.034 98.3705 140.669 98.3705 135.286C98.3705 129.903 102.736 125.538 108.119 125.538C113.501 125.538 117.867 129.903 117.867 135.286C117.867 140.626 113.501 145.034 108.119 145.034ZM142.915 107.144C144.907 107.144 146.517 108.754 146.517 110.746C146.517 112.738 144.907 114.349 142.915 114.349C140.923 114.349 139.312 112.738 139.312 110.746C139.27 108.754 140.923 107.144 142.915 107.144ZM127.657 105.152C122.274 105.152 117.909 100.786 117.909 95.4037C117.909 90.0211 122.274 85.6557 127.657 85.6557C133.04 85.6557 137.405 90.0211 137.405 95.4037C137.405 100.786 133.04 105.152 127.657 105.152Z" fill="#F8C40A"/>
<path d="M95.8047 98.3569C97.4082 94.4858 95.57 90.0478 91.6989 88.4443C87.8278 86.8408 83.3898 88.6791 81.7863 92.5501C80.1829 96.4212 82.0211 100.859 85.8922 102.463C89.7632 104.066 94.2012 102.228 95.8047 98.3569Z" fill="#F8C40A"/>
<path d="M127.657 103.033C131.847 103.033 135.244 99.636 135.244 95.4461C135.244 91.2562 131.847 87.8596 127.657 87.8596C123.467 87.8596 120.07 91.2562 120.07 95.4461C120.07 99.636 123.467 103.033 127.657 103.033Z" fill="#F8C40A"/>
<path d="M29.6256 180.551C29.5832 179.618 29.668 178.686 30.0071 177.711Z" fill="white"/>
<path d="M212.931 101.931L196.868 93.9203C196.953 94.3865 196.995 94.8951 196.995 95.4037C196.995 100.829 192.588 105.237 187.163 105.237C181.738 105.237 177.33 100.829 177.33 95.4037C177.33 91.674 179.406 88.4105 182.5 86.7576L172.795 81.926L186.993 43.6119C188.9 37.8479 183.433 32.3805 177.711 34.3301L135.159 44.29L130.327 34.5844C128.547 36.3221 126.131 37.424 123.419 37.424C117.994 37.3816 113.586 32.9738 113.586 27.5488C113.586 22.6324 117.231 18.5213 121.978 17.8432L115.112 6.61172C112.399 1.18672 104.686 1.18672 101.973 6.61172L81.926 44.2053L49.5879 30.8123C49.7574 31.448 49.8846 32.0838 49.8846 32.7619C49.8846 36.5764 46.7906 39.6703 42.9762 39.6703C39.1617 39.6703 36.0678 36.5764 36.0678 32.7619C36.0678 30.1342 37.5088 27.8455 39.6703 26.7012L25.7264 21.5305C19.9623 19.6232 14.4949 25.0906 16.4445 30.8123L44.2053 81.8412L28.1846 90.8264C29.4137 91.4197 30.2189 92.6488 30.2189 94.0898C30.2189 96.0818 28.6084 97.6924 26.6164 97.6924C24.6244 97.6924 23.0139 96.0818 23.0139 94.0898C23.0139 93.9627 23.0139 93.8355 23.0139 93.7508L8.30703 101.973C2.88203 104.686 2.88203 112.399 8.30703 115.112L52.6818 130.921L36.873 163.555C38.8227 165.335 40.0518 167.921 40.0518 170.803C40.0518 176.228 35.6439 180.636 30.2189 180.636C30.007 180.636 29.8375 180.636 29.6256 180.636C29.9223 185.171 34.4996 188.688 39.2889 187.078L81.8412 172.879L101.888 208.354C104.601 213.779 112.314 213.779 115.027 208.354L120.791 201.488C120.537 201.488 120.282 201.53 120.028 201.53C114.603 201.53 110.195 197.122 110.195 191.697C110.195 186.272 114.603 181.865 120.028 181.865C123.504 181.865 126.555 183.687 128.335 186.4L135.074 172.879L181.865 191.316C187.629 193.223 197.334 191.994 195.385 186.272L172.71 135.244L197.589 122.825C195.512 121.723 194.113 119.52 194.113 116.977C194.113 113.332 197.08 110.322 200.767 110.322C204.412 110.322 207.421 113.289 207.421 116.977C207.421 117.316 207.379 117.655 207.337 117.994L212.889 115.239C218.356 112.357 218.356 104.643 212.931 101.931ZM42.0437 71.8389C39.2465 71.8389 37.0002 69.5926 37.0002 66.7953C37.0002 63.998 39.2465 61.7518 42.0437 61.7518C44.841 61.7518 47.0873 63.998 47.0873 66.7953C47.0873 69.5926 44.7986 71.8389 42.0437 71.8389ZM44.3748 124.817C41.3232 124.817 38.865 122.359 38.865 119.308C38.865 116.256 41.3232 113.798 44.3748 113.798C47.4264 113.798 49.8846 116.256 49.8846 119.308C49.8846 122.359 47.4264 124.817 44.3748 124.817ZM46.3668 177.965C44.3748 177.965 42.7643 176.355 42.7643 174.363C42.7643 172.371 44.3748 170.76 46.3668 170.76C48.3588 170.76 49.9693 172.371 49.9693 174.363C50.0117 176.355 48.3588 177.965 46.3668 177.965ZM92.0555 49.3336C94.0475 49.3336 95.658 50.9441 95.658 52.9361C95.658 54.9281 94.0475 56.5387 92.0555 56.5387C90.0635 56.5387 88.4529 54.9281 88.4529 52.9361C88.4529 50.9441 90.0635 49.3336 92.0555 49.3336ZM142.406 142.025C123.758 160.673 93.4541 160.673 74.8057 142.025C56.1572 123.376 56.1572 93.0727 74.8057 74.4242C93.4541 55.7758 123.758 55.7758 142.406 74.4242C161.055 93.0727 161.055 123.419 142.406 142.025ZM177.838 181.78C177.838 183.772 176.228 185.382 174.236 185.382C172.244 185.382 170.633 183.772 170.633 181.78C170.633 179.788 172.244 178.177 174.236 178.177C176.228 178.177 177.838 179.746 177.838 181.78ZM176.016 151.646C176.016 155.333 173.049 158.3 169.362 158.3C165.674 158.3 162.708 155.333 162.708 151.646C162.708 147.958 165.674 144.992 169.362 144.992C173.049 145.034 176.016 148.001 176.016 151.646ZM168.387 76.0348C165.166 76.0348 162.538 73.407 162.538 70.1859C162.538 66.9648 165.166 64.3371 168.387 64.3371C171.608 64.3371 174.236 66.9648 174.236 70.1859C174.236 73.407 171.608 76.0348 168.387 76.0348Z" fill="#F8C40A"/>
</svg>
