<svg width="116" height="75" viewBox="0 0 116 75" fill="none" xmlns="http://www.w3.org/2000/svg">
<path d="M23.2 40.3846C23.2 46.7571 18.0065 51.9231 11.6 51.9231C5.19354 51.9231 0 46.7571 0 40.3846C0 34.0121 5.19354 28.8462 11.6 28.8462C18.0065 28.8462 23.2 34.0121 23.2 40.3846ZM11.6 63.4615C8.39677 63.4615 5.8 66.0445 5.8 69.2308C5.8 72.417 8.39677 75 11.6 75C14.8032 75 17.4 72.417 17.4 69.2308C17.4 66.0445 14.8032 63.4615 11.6 63.4615ZM11.6 0C5.19354 0 0 5.16598 0 11.5385C0 17.9109 5.19354 23.0769 11.6 23.0769C18.0065 23.0769 23.2 17.9109 23.2 11.5385C23.2 5.16598 18.0065 0 11.6 0ZM40.6 34.6154C37.3968 34.6154 34.8 37.1984 34.8 40.3846C34.8 43.5709 37.3968 46.1538 40.6 46.1538C43.8032 46.1538 46.4 43.5709 46.4 40.3846C46.4 37.1984 43.8032 34.6154 40.6 34.6154ZM40.6 63.4615C37.3968 63.4615 34.8 66.0445 34.8 69.2308C34.8 72.417 37.3968 75 40.6 75C43.8032 75 46.4 72.417 46.4 69.2308C46.4 66.0445 43.8032 63.4615 40.6 63.4615ZM40.6 0C34.1935 0 29 5.16598 29 11.5385C29 17.9109 34.1935 23.0769 40.6 23.0769C47.0065 23.0769 52.2 17.9109 52.2 11.5385C52.2 5.16598 47.0065 0 40.6 0ZM81.2 34.6154C77.9968 34.6154 75.4 37.1984 75.4 40.3846C75.4 43.5709 77.9968 46.1538 81.2 46.1538C84.4032 46.1538 87 43.5709 87 40.3846C87 37.1984 84.4032 34.6154 81.2 34.6154ZM81.2 63.4615C77.9968 63.4615 75.4 66.0445 75.4 69.2308C75.4 72.417 77.9968 75 81.2 75C84.4032 75 87 72.417 87 69.2308C87 66.0445 84.4032 63.4615 81.2 63.4615ZM81.2 0C74.7935 0 69.6 5.16598 69.6 11.5385C69.6 17.9109 74.7935 23.0769 81.2 23.0769C87.6065 23.0769 92.8 17.9109 92.8 11.5385C92.8 5.16598 87.6065 0 81.2 0ZM110.2 34.6154C106.997 34.6154 104.4 37.1984 104.4 40.3846C104.4 43.5709 106.997 46.1538 110.2 46.1538C113.403 46.1538 116 43.5709 116 40.3846C116 37.1984 113.403 34.6154 110.2 34.6154ZM110.2 63.4615C106.997 63.4615 104.4 66.0445 104.4 69.2308C104.4 72.417 106.997 75 110.2 75C113.403 75 116 72.417 116 69.2308C116 66.0445 113.403 63.4615 110.2 63.4615ZM110.2 5.76923C106.997 5.76923 104.4 8.35222 104.4 11.5385C104.4 14.7247 106.997 17.3077 110.2 17.3077C113.403 17.3077 116 14.7247 116 11.5385C116 8.35222 113.403 5.76923 110.2 5.76923Z" fill="#FEE800"/>
</svg>
